<?xml version="1.0" encoding="UTF-8" standalone="no"?><!DOCTYPE svg PUBLIC "-//W3C//DTD SVG 1.1//EN" "http://www.w3.org/Graphics/SVG/1.1/DTD/svg11.dtd"><svg xmlns="http://www.w3.org/2000/svg" version="1.1" width="1745mm" height="1225mm"><path transform="translate(20,20)" fill="none" stroke="#000000" stroke-width="8mm" stroke-linecap="round" stroke-linejoin="round" d="M 50 28 c -0.63 0 -24.39 -0.53 -36 0 c -2.66 0.12 -5.58 1.12 -8 2 c -1.06 0.38 -2.33 1.19 -3 2 c -0.84 1 -1.81 2.68 -2 4 c -0.42 2.95 -1.43 7.94 0 10 c 2.96 4.25 10.27 9.3 16 13 c 10.21 6.59 21.02 12.51 32 18 c 5.77 2.89 11.94 5.59 18 7 c 7.9 1.84 17.83 2.75 25 3 c 1.27 0.04 2.88 -1.16 4 -2 c 1.42 -1.07 3.4 -2.56 4 -4 c 0.86 -2.06 0.88 -5.29 1 -8 c 0.21 -4.7 0.67 -9.55 0 -14 c -0.95 -6.24 -2.58 -13.3 -5 -19 c -2.05 -4.83 -5.66 -9.61 -9 -14 c -2.98 -3.92 -6.42 -7.8 -10 -11 c -2.6 -2.33 -5.95 -4.47 -9 -6 c -2.05 -1.03 -4.69 -1.77 -7 -2 c -4.13 -0.41 -9.44 -0.63 -13 0 c -1.37 0.24 -3.23 1.79 -4 3 c -1.31 2.07 -2.61 5.38 -3 8 c -0.55 3.68 -0.33 8.03 0 12 c 0.34 4.02 0.64 8.47 2 12 c 1.8 4.67 5.02 9.63 8 14 c 1.96 2.88 4.39 5.8 7 8 c 3.54 2.98 7.78 5.89 12 8 c 6.3 3.15 13.38 7.14 20 8 c 15.06 1.96 32.59 1.44 49 1 c 8.76 -0.23 17.67 -1.33 26 -3 c 4.73 -0.95 9.42 -2.99 14 -5 c 6.21 -2.71 12.96 -5.97 18 -9 c 0.9 -0.54 1.65 -1.94 2 -3 c 0.9 -2.7 2.13 -6.25 2 -9 c -0.18 -3.69 -1.47 -8.93 -3 -12 c -0.79 -1.59 -3.21 -2.98 -5 -4 c -2.75 -1.57 -6 -3.52 -9 -4 c -6.71 -1.08 -15.46 -1.63 -22 -1 c -2.92 0.28 -6.61 2.25 -9 4 c -2.23 1.64 -4.61 4.53 -6 7 c -1.43 2.54 -2.4 5.98 -3 9 c -0.7 3.51 -1 7.36 -1 11 c 0 3.64 -0.53 8.53 1 11 c 2.16 3.49 7.71 7.37 12 10 c 5.77 3.54 12.45 6.5 19 9 c 7.5 2.86 15.37 6.15 23 7 c 15.56 1.73 33.11 1.7 49 1 c 6.3 -0.28 13.4 -1.76 19 -4 c 5.45 -2.18 11.07 -6.36 16 -10 c 2.59 -1.91 5.45 -4.42 7 -7 c 2.17 -3.62 4.29 -8.75 5 -13 c 0.86 -5.18 1.17 -12.02 0 -17 c -1.3 -5.5 -4.62 -12.07 -8 -17 c -4.33 -6.32 -10.35 -12.95 -16 -18 c -3.26 -2.91 -7.85 -5.15 -12 -7 c -4.72 -2.1 -10.02 -4.09 -15 -5 c -5.68 -1.03 -13.67 -1.79 -18 -1 c -1.54 0.28 -3.49 3.25 -4 5 c -0.97 3.28 -0.85 7.9 -1 12 c -0.19 5.45 -1.11 11.19 0 16 c 1.71 7.42 5.27 15.86 9 23 c 3.81 7.29 8.61 15 14 21 c 5.9 6.58 13.59 13.49 21 18 c 7.21 4.39 16.71 8.16 25 10 c 8.95 1.99 19.3 2 29 2 c 8.7 0 18.49 0.3 26 -2 c 7.61 -2.33 15.68 -8.12 23 -13 c 6.7 -4.47 13.61 -9.61 19 -15 c 3.21 -3.21 5.59 -7.79 8 -12 c 2.98 -5.22 6.2 -10.61 8 -16 c 1.73 -5.2 2.47 -11.32 3 -17 c 0.46 -4.94 0.42 -10.18 0 -15 c -0.23 -2.65 -0.66 -6.39 -2 -8 c -1.45 -1.74 -5.32 -3.54 -8 -4 c -6.29 -1.08 -14.52 -1.43 -21 -1 c -2.92 0.19 -6.84 1.41 -9 3 c -2.28 1.67 -4.58 5.15 -6 8 c -2.43 4.86 -5.05 10.79 -6 16 c -0.94 5.19 -0.81 11.68 0 17 c 0.79 5.24 2.3 11.76 5 16 c 3.76 5.9 10.09 13.15 16 17 c 7.38 4.81 17.89 8.65 27 11 c 11.05 2.85 23.2 4.43 35 5 c 23.03 1.11 45.88 0.55 69 0 c 5.07 -0.12 10.52 -0.69 15 -2 c 3.05 -0.89 6.37 -3.03 9 -5 c 2.53 -1.89 5.63 -4.61 7 -7 c 0.98 -1.71 1.85 -5.48 1 -7 c -1.86 -3.35 -6.88 -8.78 -11 -11 c -7.87 -4.24 -18.63 -7.32 -28 -10 c -4.45 -1.27 -9.29 -1.62 -14 -2 c -3.66 -0.29 -8.89 -0.97 -11 0 c -1.21 0.56 -1.77 4.03 -2 6 c -0.4 3.43 -0.63 7.58 0 11 c 0.97 5.21 2.37 11.71 5 16 c 3.22 5.25 8.91 10.68 14 15 c 5.71 4.85 12.4 9.62 19 13 c 6.71 3.44 14.75 6.52 22 8 c 6.82 1.4 14.41 0.81 22 1 c 6.55 0.16 13.8 1.59 19 0 c 5.54 -1.69 13.09 -6.16 17 -11 l 55 -78"/></svg>
